# xmcd
#
# Track frame offsets: 
#        150
#        25802
#        43279
#        67105
#        99519
#        119223
#        144513
#        170136
#        197573
#        218158
#
# Disc length: 3226 seconds
#
# Revision: 0
# Processed by: cddbd v1.5.2PL0 Copyright (c) Steve Scherf et al.
# Submitted via: ExactAudioCopy v1.0b1
#
DISCID=9e0c980a
DTITLE=Various Artist - Chong Xa
DYEAR=2001
DGENRE=Vietnamese
TTITLE0=Cam Ly - Chong xa
TTITLE1=Quang Linh - Thuong qua Viet Nam
TTITLE2=Thanh Thanh - Hat cho nguoi tinh nho
TTITLE3=Phuong Thanh - Ai se yeu em
TTITLE4=Thanh Thanh - Ben em mua xuan
TTITLE5=Cam Ly - Tinh dang ly kho qua
TTITLE6=Minh Thuan - Dong song mua dong
TTITLE7=Phuong Thanh - Buon vuong got hong
TTITLE8=Quang Linh - Doi cho vo vong
TTITLE9=Thanh Thanh - Ganh hang rong
EXTD=
EXTT0=
EXTT1=
EXTT2=
EXTT3=
EXTT4=
EXTT5=
EXTT6=
EXTT7=
EXTT8=
EXTT9=
PLAYORDER=
